<svg xmlns="http://www.w3.org/2000/svg" xmlns:xlink="http://www.w3.org/1999/xlink" width="74.441" height="68.596" viewBox="0 0 74.441 68.596"><defs><style>.a{fill:#281566;}.b{filter:url(#e);}.c{filter:url(#c);}.d{filter:url(#a);}</style><filter id="a" x="0.006" y="20.859" width="35.069" height="47.737" filterUnits="userSpaceOnUse"><feOffset dy="3" input="SourceAlpha"/><feGaussianBlur stdDeviation="3" result="b"/><feFlood flood-opacity="0.161"/><feComposite operator="in" in2="b"/><feComposite in="SourceGraphic"/></filter><filter id="c" x="0" y="0" width="74.441" height="54.685" filterUnits="userSpaceOnUse"><feOffset dy="3" input="SourceAlpha"/><feGaussianBlur stdDeviation="3" result="d"/><feFlood flood-opacity="0.161"/><feComposite operator="in" in2="d"/><feComposite in="SourceGraphic"/></filter><filter id="e" x="39.372" y="20.858" width="35.069" height="47.737" filterUnits="userSpaceOnUse"><feOffset dy="3" input="SourceAlpha"/><feGaussianBlur stdDeviation="3" result="f"/><feFlood flood-opacity="0.161"/><feComposite operator="in" in2="f"/><feComposite in="SourceGraphic"/></filter></defs><g transform="translate(9 6)"><g class="d" transform="matrix(1, 0, 0, 1, -9, -6)"><path class="a" d="M222.358,99.767v10.99a8.535,8.535,0,0,1-17.069,0V94a4.864,4.864,0,0,1,8.292-3.027l8.771,8.783Z" transform="translate(-196.28 -62.69)"/></g><g class="c" transform="matrix(1, 0, 0, 1, -9, -6)"><path class="a" d="M261.719,57.571V72.464a4.851,4.851,0,0,0-8.292-3.294l-6.1,6.1-1.765,1.765-.914.914-4.774,4.774-.037.044c-.1.105-.2.211-.3.317a8.347,8.347,0,0,1-5.93,2.393h-.1a8.341,8.341,0,0,1-6.042-2.393c-.131-.131-.255-.261-.373-.4l-4.743-4.737-8.771-8.783a4.856,4.856,0,0,0-8.3,3.294V57.571a8.7,8.7,0,0,1,8.286-8.771,8.494,8.494,0,0,1,5.986,2.219l11.686,11.692h.006l2.256,2.256,1.765-1.759,12.184-12.19A8.519,8.519,0,0,1,253.44,48.8,8.691,8.691,0,0,1,261.719,57.571Z" transform="translate(-196.28 -42.8)"/></g><g transform="translate(15.301 12.943)"><path class="a" d="M235.171,88.529l.854.855,12.065-12.071-3.234-3.228Z" transform="translate(-235.171 -74.084)"/></g><g class="b" transform="matrix(1, 0, 0, 1, -9, -6)"><path class="a" d="M299.267,94.272v16.485a8.535,8.535,0,0,1-17.069,0v-11l8.777-8.783A4.851,4.851,0,0,1,299.267,94.272Z" transform="translate(-233.83 -62.69)"/></g></g></svg>